<svg xmlns="http://www.w3.org/2000/svg" viewBox="0 0 32 32" width="32" height="32">
  <defs>
    <!-- Gradients -->
    <linearGradient id="skyGradient" x1="0%" y1="0%" x2="0%" y2="100%">
      <stop offset="0%" style="stop-color:#87CEEB;stop-opacity:1" />
      <stop offset="100%" style="stop-color:#98FB98;stop-opacity:1" />
    </linearGradient>
    
    <linearGradient id="treeGradient" x1="0%" y1="0%" x2="0%" y2="100%">
      <stop offset="0%" style="stop-color:#228B22;stop-opacity:1" />
      <stop offset="100%" style="stop-color:#006400;stop-opacity:1" />
    </linearGradient>
    
    <linearGradient id="trunkGradient" x1="0%" y1="0%" x2="0%" y2="100%">
      <stop offset="0%" style="stop-color:#8B4513;stop-opacity:1" />
      <stop offset="100%" style="stop-color:#654321;stop-opacity:1" />
    </linearGradient>
    
    <linearGradient id="leafGradient" x1="0%" y1="0%" x2="0%" y2="100%">
      <stop offset="0%" style="stop-color:#32CD32;stop-opacity:1" />
      <stop offset="100%" style="stop-color:#228B22;stop-opacity:1" />
    </linearGradient>
  </defs>
  
  <!-- Background -->
  <rect width="32" height="32" fill="url(#skyGradient)" rx="4"/>
  
  <!-- Tree trunk -->
  <rect x="14" y="20" width="4" height="8" fill="url(#trunkGradient)" stroke="#000" stroke-width="0.5"/>
  
  <!-- Tree leaves -->
  <circle cx="16" cy="16" r="6" fill="url(#leafGradient)" stroke="#000" stroke-width="0.5"/>
  <circle cx="13" cy="14" r="4" fill="url(#leafGradient)" stroke="#000" stroke-width="0.5"/>
  <circle cx="19" cy="14" r="4" fill="url(#leafGradient)" stroke="#000" stroke-width="0.5"/>
  <circle cx="16" cy="12" r="3" fill="url(#leafGradient)" stroke="#000" stroke-width="0.5"/>
  
  <!-- Timer indicator (clock face) -->
  <circle cx="16" cy="16" r="2" fill="none" stroke="#FFD700" stroke-width="1"/>
  <line x1="16" y1="16" x2="16" y2="14" stroke="#FFD700" stroke-width="1" stroke-linecap="round"/>
  <line x1="16" y1="16" x2="17.5" y2="16" stroke="#FFD700" stroke-width="1" stroke-linecap="round"/>
  
  <!-- Small decorative elements -->
  <circle cx="8" cy="8" r="1" fill="#FFD700" opacity="0.8"/>
  <circle cx="24" cy="6" r="1" fill="#FFD700" opacity="0.6"/>
  <circle cx="6" cy="24" r="1" fill="#FFD700" opacity="0.7"/>
  
  <!-- Pixel art style details -->
  <rect x="15" y="15" width="2" height="2" fill="#006400"/>
  <rect x="13" y="13" width="1" height="1" fill="#006400"/>
  <rect x="18" y="13" width="1" height="1" fill="#006400"/>
</svg>
